<svg xmlns="http://www.w3.org/2000/svg" version="1.1" viewBox="0 0 100 100"><path d="M 45.835039918091326 56.993387206654845 A 15.807118745769827 15.807118745769827 0 0 1 35.333333333333336 82.34674967164045 L 35.333333333333336 97.93610506548953 A 31.333333333333336 31.333333333333336 0 0 0 56.8583788314091 45.970048293337086 Z" fill="#2c64debb"></path><path d="M 17.653250328359544 64.66666666666666 A 15.807118745769827 15.807118745769827 0 0 1 36.13027148743813 51.108963108461786 A 31.333333333333336 31.333333333333336 0 0 1 31.393441723891794 35.3934417238918 A 31.333333333333336 31.333333333333336 0 0 0 2.0638949345104685 64.66666666666666 Z" fill="#2c64debb"></path><path d="M 100 33.333333333333336 A 33.333333333333336 33.333333333333336 0 1 0 43.09644062711508 56.903559372884914 L 56.903559372884914 43.09644062711508 A 13.807118745769827 13.807118745769827 0 1 1 80.47378541243648 33.333333333333336 Z" fill="#2c64de"></path><path d="M 33.333333333333336 80.47378541243648 A 13.807118745769827 13.807118745769827 0 0 1 19.52621458756351 66.66666666666666 L 0 66.66666666666666 A 33.333333333333336 33.333333333333336 0 0 0 33.333333333333336 100 Z" fill="#2c64de"></path></svg>