<svg xmlns="http://www.w3.org/2000/svg" version="1.1" viewBox="0 0 100 100"><defs><linearGradient id="one" gradientUnits="userSpaceOnUse" x1="0" x2="100" y1="100" y2="0"><stop offset="0%" stop-color="hsl(0 100% 90%)"></stop><stop offset="20%" stop-color="hsl(33 100% 90%)"></stop><stop offset="40%" stop-color="hsl(66 100% 90%)"></stop><stop offset="60%" stop-color="hsl(111 100% 90%)"></stop><stop offset="80%" stop-color="hsl(222 100% 90%)"></stop><stop offset="100%" stop-color="hsl(333 100% 90%)"></stop></linearGradient><linearGradient id="both" gradientUnits="userSpaceOnUse" x1="0" x2="100" y1="100" y2="0"><stop offset="0%" stop-color="hsl(0 100% 75%)"></stop><stop offset="20%" stop-color="hsl(33 100% 75%)"></stop><stop offset="40%" stop-color="hsl(66 100% 75%)"></stop><stop offset="60%" stop-color="hsl(111 100% 75%)"></stop><stop offset="80%" stop-color="hsl(222 100% 75%)"></stop><stop offset="100%" stop-color="hsl(333 100% 75%)"></stop></linearGradient></defs><path d="M 100 32 A 32 32 0 1 0 45.37258300203048 54.62741699796952 A 18.911688245431428 18.911688245431428 0 1 1 13.088311754568572 68 L 0 68 A 32 32 0 1 0 54.62741699796952 45.37258300203048 A 18.911688245431428 18.911688245431428 0 1 1 86.91168824543144 32 Z" fill="url(#one)"></path><path d="M 100 32 A 32 32 0 1 0 36.28869079919791 36.28869079919791 A 32 32 0 1 0 32 100 L 32 86.91168824543144 A 18.911688245431428 18.911688245431428 0 1 1 45.37258300203048 54.62741699796952 L 54.62741699796952 45.37258300203048 A 18.911688245431428 18.911688245431428 0 1 1 86.91168824543144 32 Z" fill="url(#one)"></path><path d="M 100 32 A 32 32 0 1 0 45.37258300203048 54.62741699796952 L 54.62741699796952 45.37258300203048 A 18.911688245431428 18.911688245431428 0 1 1 86.91168824543144 32 Z" fill="url(#both)"></path><path d="M 32 86.91168824543144 A 18.911688245431428 18.911688245431428 0 0 1 13.088311754568572 68 L 0 68 A 32 32 0 0 0 32 100 Z" fill="url(#both)"></path></svg>